Coordinates
version=1
nRows=10
nColumns=22
inDegrees=yes

Units are S.I. units (second, meters, Newtons, ...)
If the header above contains a line with 'inDegrees', this indicates whether rotational values are in degrees (yes) or radians (no).

endheader
time	pelvis_tilt	pelvis_list	pelvis_rotation	pelvis_tx	pelvis_ty	pelvis_tz	hip_flexion_r	hip_adduction_r	hip_rotation_r	knee_angle_r	ankle_angle_r	subtalar_angle_r	hip_flexion_l	hip_adduction_l	hip_rotation_l	knee_angle_l	ankle_angle_l	subtalar_angle_l	lumbar_extension	lumbar_bending	lumbar_rotation
      4.97000000	     -4.17356350	     -0.26542552	    281.63445248	     -0.74210603	      1.00115269	      0.58478892	     16.58543299	     -9.58934588	     -9.32148819	    -60.94997531	      5.64355135	     12.70688116	      9.74291784	      6.20379768	    -23.46012501	    -15.57629881	      9.51666993	    -19.56848305	     -2.25986233	     -2.53457514	     -1.27158893
      4.98000000	     -4.23712195	     -0.29600416	    283.01623196	     -0.73646723	      1.00114740	      0.59191622	     17.60023949	     -9.59226636	     -8.94565590	    -59.89844927	      6.19037206	     12.35554614	      8.93725225	      6.57339189	    -22.21309622	    -15.08161949	      9.71415092	    -19.51672994	     -2.33267043	     -2.40060874	     -1.84591454
      4.99000000	     -4.32654253	     -0.36518184	    284.43754869	     -0.73075253	      1.00113769	      0.59897103	     18.49838523	     -9.52478822	     -8.54219624	    -58.65318134	      6.63767287	     11.88919545	      8.09459835	      6.87289248	    -20.93210340	    -14.60116865	      9.90907276	    -19.40343582	     -2.43313805	     -2.23401415	     -2.41312522
      5.00000000	     -4.40676248	     -0.41951396	    285.88283506	     -0.72503745	      1.00100229	      0.60587540	     19.36356415	     -9.42843763	     -8.05535952	    -57.28726690	      7.11990333	     11.49157704	      7.30220707	      7.13779449	    -19.62465756	    -14.19982322	     10.12560960	    -19.26080247	     -2.52498978	     -2.09348003	     -2.97875568
      5.01000000	     -4.48089806	     -0.45671878	    287.35059194	     -0.71930846	      1.00074913	      0.61267124	     20.19487036	     -9.30552656	     -7.49226854	    -55.81390437	      7.62661799	     11.13696788	      6.55821970	      7.37010367	    -18.29157248	    -13.87083900	     10.35479248	    -19.12394629	     -2.59765890	     -1.97564165	     -3.54021844
      5.02000000	     -4.55580512	     -0.52218771	    288.82753901	     -0.71356210	      1.00047242	      0.61939024	     20.94215192	     -9.13226724	     -6.85711895	    -54.23136259	      8.06117929	     10.68119136	      5.80696830	      7.55373459	    -16.92326919	    -13.59365923	     10.58423528	    -18.95695129	     -2.69779570	     -1.85286138	     -4.08130688
      5.03000000	     -4.61730558	     -0.62178302	    290.28770268	     -0.70784365	      1.00017916	      0.62605815	     21.60766369	     -8.90972485	     -6.12555702	    -52.56671197	      8.40106368	     10.04893994	      5.03694683	      7.69703975	    -15.55110045	    -13.36425681	     10.81453513	    -18.75207294	     -2.83502101	     -1.73701444	     -4.57140123
      5.04000000	     -4.65540888	     -0.67342521	    291.75866541	     -0.70213916	      0.99970886	      0.63261708	     22.29044591	     -8.70001900	     -5.31607456	    -50.88112276	      8.70472838	      9.56485050	      4.34226416	      7.84448749	    -14.13335653	    -13.20774147	     11.04153072	    -18.62300439	     -2.92965062	     -1.67146303	     -5.05320759
      5.05000000	     -4.66700095	     -0.68342417	    293.22985803	     -0.69644880	      0.99907746	      0.63909346	     22.98722971	     -8.50850438	     -4.43362399	    -49.19360348	      8.93348490	      9.24893679	      3.70136301	      8.00270044	    -12.68618579	    -13.10383406	     11.26875594	    -18.55085745	     -2.98784129	     -1.65569613	     -5.52452692
      5.06000000	     -4.65893339	     -0.71234286	    294.67536138	     -0.69081701	      0.99840504	      0.64554572	     23.62889333	     -8.29412748	     -3.49568068	    -47.48778944	      9.05244274	      8.95510996	      3.04355475	      8.13866813	    -11.23709133	    -13.03136653	     11.49236105	    -18.49215619	     -3.07395814	     -1.66130711	     -5.94157676
